<?xml version="1.0" encoding="utf-8" standalone="no"?><!DOCTYPE svg PUBLIC "-//W3C//DTD SVG 20010904//EN" "http://www.w3.org/TR/2001/REC-SVG-20010904/DTD/svg10.dtd"><svg xmlns="http://www.w3.org/2000/svg" width="500" height="323" xmlns:xlink="http://www.w3.org/1999/xlink"><source><![CDATA[Title: CMF Chain Router

participant ChainRouter
participant LegacyRouter
participant DynamicRouter

ChainRouter->LegacyRouter: Match
LegacyRouter-->ChainRouter: Nope
ChainRouter->DynamicRouter: Match
DynamicRouter-->ChainRouter: attributes]]></source><desc>Created with Raphaël 2.1.0</desc><defs><path id="raphael-marker-block" d="M5,0 0,2.5 5,5z" stroke-linecap="round"></path><marker refY="2.5" refX="2.5" orient="auto" markerWidth="5" markerHeight="5" id="raphael-marker-endblock55"><use stroke="none" fill="#000" stroke-width="1.0000" transform="rotate(180 2.5 2.5) scale(1,1)" xlink:href="#raphael-marker-block"></use></marker></defs><rect stroke-width="2" style="" stroke="#000000" fill="none" ry="0" rx="0" r="0" height="29" width="170" y="10" x="10"></rect><rect style="" stroke="none" fill="#ffffff" ry="0" rx="0" r="0" height="19" width="160" y="15" x="15"></rect><text font-family="Andale Mono, monospace" font-size="16px" fill="#000000" stroke="none" font="10px &quot;Arial&quot;" text-anchor="middle" y="24.5" x="95" style="text-anchor: middle; font: 16px Andale Mono,monospace;"><tspan dy="5.5">CMF Chain Router</tspan></text><rect stroke-width="2" style="" stroke="#000000" fill="none" ry="0" rx="0" r="0" height="39" width="130" y="49" x="10"></rect><rect style="" stroke="none" fill="#ffffff" ry="0" rx="0" r="0" height="19" width="110" y="59" x="20"></rect><text font-family="Andale Mono, monospace" font-size="16px" fill="#000000" stroke="none" font="10px &quot;Arial&quot;" text-anchor="middle" y="68.5" x="75" style="text-anchor: middle; font: 16px Andale Mono,monospace;"><tspan dy="5.5">ChainRouter</tspan></text><rect stroke-width="2" style="" stroke="#000000" fill="none" ry="0" rx="0" r="0" height="39" width="130" y="264" x="10"></rect><rect style="" stroke="none" fill="#ffffff" ry="0" rx="0" r="0" height="19" width="110" y="274" x="20"></rect><text font-family="Andale Mono, monospace" font-size="16px" fill="#000000" stroke="none" font="10px &quot;Arial&quot;" text-anchor="middle" y="283.5" x="75" style="text-anchor: middle; font: 16px Andale Mono,monospace;"><tspan dy="5.5">ChainRouter</tspan></text><path stroke-width="2" d="M75,88L75,264" stroke="#000000" fill="none" style=""></path><rect stroke-width="2" style="" stroke="#000000" fill="none" ry="0" rx="0" r="0" height="39" width="140" y="49" x="160"></rect><rect style="" stroke="none" fill="#ffffff" ry="0" rx="0" r="0" height="19" width="120" y="59" x="170"></rect><text font-family="Andale Mono, monospace" font-size="16px" fill="#000000" stroke="none" font="10px &quot;Arial&quot;" text-anchor="middle" y="68.5" x="230" style="text-anchor: middle; font: 16px Andale Mono,monospace;"><tspan dy="5.5">LegacyRouter</tspan></text><rect stroke-width="2" style="" stroke="#000000" fill="none" ry="0" rx="0" r="0" height="39" width="140" y="264" x="160"></rect><rect style="" stroke="none" fill="#ffffff" ry="0" rx="0" r="0" height="19" width="120" y="274" x="170"></rect><text font-family="Andale Mono, monospace" font-size="16px" fill="#000000" stroke="none" font="10px &quot;Arial&quot;" text-anchor="middle" y="283.5" x="230" style="text-anchor: middle; font: 16px Andale Mono,monospace;"><tspan dy="5.5">LegacyRouter</tspan></text><path stroke-width="2" d="M230,88L230,264" stroke="#000000" fill="none" style=""></path><rect stroke-width="2" style="" stroke="#000000" fill="none" ry="0" rx="0" r="0" height="39" width="150" y="49" x="320"></rect><rect style="" stroke="none" fill="#ffffff" ry="0" rx="0" r="0" height="19" width="130" y="59" x="330"></rect><text font-family="Andale Mono, monospace" font-size="16px" fill="#000000" stroke="none" font="10px &quot;Arial&quot;" text-anchor="middle" y="68.5" x="395" style="text-anchor: middle; font: 16px Andale Mono,monospace;"><tspan dy="5.5">DynamicRouter</tspan></text><rect stroke-width="2" style="" stroke="#000000" fill="none" ry="0" rx="0" r="0" height="39" width="150" y="264" x="320"></rect><rect style="" stroke="none" fill="#ffffff" ry="0" rx="0" r="0" height="19" width="130" y="274" x="330"></rect><text font-family="Andale Mono, monospace" font-size="16px" fill="#000000" stroke="none" font="10px &quot;Arial&quot;" text-anchor="middle" y="283.5" x="395" style="text-anchor: middle; font: 16px Andale Mono,monospace;"><tspan dy="5.5">DynamicRouter</tspan></text><path stroke-width="2" d="M395,88L395,264" stroke="#000000" fill="none" style=""></path><rect style="" stroke="none" fill="#ffffff" ry="0" rx="0" r="0" height="19" width="50" y="103.5" x="127.5"></rect><text font-family="Andale Mono, monospace" font-size="16px" fill="#000000" stroke="none" font="10px &quot;Arial&quot;" text-anchor="middle" y="113" x="152.5" style="text-anchor: middle; font: 16px Andale Mono,monospace;"><tspan dy="5.5">Match</tspan></text><path stroke-dasharray="0" marker-end="url(#raphael-marker-endblock55)" stroke-width="2" d="M75,127C75,127,198.42029064893723,127,224.99663253183826,127" stroke="#000000" fill="none" style=""></path><rect style="" stroke="none" fill="#ffffff" ry="0" rx="0" r="0" height="19" width="40" y="142.5" x="132.5"></rect><text font-family="Andale Mono, monospace" font-size="16px" fill="#000000" stroke="none" font="10px &quot;Arial&quot;" text-anchor="middle" y="152" x="152.5" style="text-anchor: middle; font: 16px Andale Mono,monospace;"><tspan dy="5.5">Nope</tspan></text><path stroke-dasharray="6,2" marker-end="url(#raphael-marker-endblock55)" stroke-width="2" d="M230,166C230,166,106.57970935106277,166,80.00336746816174,166" stroke="#000000" fill="none" style=""></path><rect style="" stroke="none" fill="#ffffff" ry="0" rx="0" r="0" height="19" width="50" y="181.5" x="210"></rect><text font-family="Andale Mono, monospace" font-size="16px" fill="#000000" stroke="none" font="10px &quot;Arial&quot;" text-anchor="middle" y="191" x="235" style="text-anchor: middle; font: 16px Andale Mono,monospace;"><tspan dy="5.5">Match</tspan></text><path stroke-dasharray="0" marker-end="url(#raphael-marker-endblock55)" stroke-width="2" d="M75,205C75,205,349.4073677062988,205,390.0057233776897,205" stroke="#000000" fill="none" style=""></path><rect style="" stroke="none" fill="#ffffff" ry="0" rx="0" r="0" height="19" width="100" y="220.5" x="185"></rect><text font-family="Andale Mono, monospace" font-size="16px" fill="#000000" stroke="none" font="10px &quot;Arial&quot;" text-anchor="middle" y="230" x="235" style="text-anchor: middle; font: 16px Andale Mono,monospace;"><tspan dy="5.5">attributes</tspan></text><path stroke-dasharray="6,2" marker-end="url(#raphael-marker-endblock55)" stroke-width="2" d="M395,244C395,244,120.59263229370117,244,79.99427662231028,244" stroke="#000000" fill="none" style=""></path></svg>